<svg width="133" height="32" viewBox="0 0 133 32" fill="none" xmlns="http://www.w3.org/2000/svg">
<path d="M4.92882 13.196C5.56253 12.236 6.43094 11.456 7.53406 10.856C8.66065 10.256 9.93979 9.956 11.3715 9.956C13.0379 9.956 14.54 10.376 15.8779 11.216C17.2391 12.056 18.3071 13.256 19.0816 14.816C19.8796 16.352 20.2786 18.14 20.2786 20.18C20.2786 22.22 19.8796 24.032 19.0816 25.616C18.3071 27.176 17.2391 28.388 15.8779 29.252C14.54 30.116 13.0379 30.548 11.3715 30.548C9.91632 30.548 8.63718 30.26 7.53406 29.684C6.45441 29.084 5.586 28.316 4.92882 27.38V30.224H0V3.584H4.92882V13.196ZM15.2441 20.18C15.2441 18.98 14.9977 17.948 14.5048 17.084C14.0354 16.196 13.4017 15.524 12.6037 15.068C11.8335 14.6131 10.9583 14.377 10.0689 14.384C9.177 14.384 8.33206 14.624 7.53406 15.104C6.75953 15.56 6.12582 16.232 5.63294 17.12C5.16353 18.008 4.92882 19.052 4.92882 20.252C4.92882 21.452 5.16353 22.496 5.63294 23.384C6.12582 24.272 6.75953 24.956 7.53406 25.436C8.33206 25.892 9.177 26.12 10.0689 26.12C10.9842 26.12 11.8292 25.88 12.6037 25.4C13.4017 24.92 14.0354 24.236 14.5048 23.348C14.9977 22.46 15.2441 21.404 15.2441 20.18ZM26.3594 7.904C25.491 7.904 24.7634 7.628 24.1767 7.076C23.6134 6.5 23.3317 5.792 23.3317 4.952C23.3317 4.112 23.6134 3.416 24.1767 2.864C24.7634 2.288 25.491 2 26.3594 2C27.2278 2 27.9437 2.288 28.507 2.864C29.0937 3.416 29.3871 4.112 29.3871 4.952C29.3871 5.792 29.0937 6.5 28.507 7.076C27.9437 7.628 27.2278 7.904 26.3594 7.904ZM28.7886 10.28V30.224H23.8598V10.28H28.7886ZM45.2063 30.224L38.5876 21.728V30.224H33.6588V3.584H38.5876V18.74L45.1359 10.28H51.5434L42.9531 20.288L51.6138 30.224H45.2063ZM51.9727 20.252C51.9727 18.188 52.3834 16.388 53.2049 14.852C54.0264 13.292 55.1647 12.092 56.6199 11.252C58.075 10.388 59.7414 9.956 61.6191 9.956C64.0366 9.956 66.0316 10.58 67.6041 11.828C69.2001 13.052 70.268 14.78 70.8078 17.012H65.4927C65.2111 16.148 64.7299 15.476 64.0493 14.996C63.3921 14.492 62.5706 14.24 61.5849 14.24C60.1766 14.24 59.0618 14.768 58.2403 15.824C57.4188 16.856 57.0081 18.332 57.0081 20.252C57.0081 22.148 57.4188 23.624 58.2403 24.68C59.0618 25.712 60.1766 26.228 61.5849 26.228C63.5799 26.228 64.8825 25.316 65.4927 23.492H70.8088C70.269 25.652 69.2011 27.368 67.6051 28.64C66.0091 29.912 64.0141 30.548 61.6201 30.548C59.7424 30.548 58.076 30.128 56.6208 29.288C55.1772 28.4362 53.9946 27.1895 53.2059 25.688C52.3844 24.128 51.9737 22.316 51.9737 20.252H51.9727ZM78.3702 13.376C78.9746 12.3495 79.8222 11.4952 80.8347 10.892C81.8674 10.292 83.0409 9.992 84.3553 9.992V15.284H83.0526C81.5036 15.284 80.33 15.656 79.532 16.4C78.7575 17.144 78.3702 18.44 78.3702 20.288V30.224H73.4414V10.28H78.3702V13.376ZM99.4683 27.38C98.9285 28.292 98.0484 29.06 96.8279 29.684C95.6074 30.284 94.2931 30.584 92.8849 30.584C91.6644 30.584 90.5613 30.332 89.5755 29.828C88.5897 29.324 87.8152 28.628 87.2519 27.74C86.6886 26.852 86.407 25.832 86.407 24.68C86.407 22.832 87.0759 21.32 88.4137 20.144C89.775 18.968 91.8052 18.38 94.5043 18.38H99.4683C99.4214 17.108 99.0576 16.1 98.377 15.356C97.7198 14.588 96.8044 14.204 95.6309 14.204C94.5982 14.204 93.7415 14.492 93.0609 15.068C92.3802 15.62 91.946 16.4 91.7583 17.408H86.8294C87.0641 15.968 87.5688 14.684 88.3433 13.556C89.1343 12.41 90.2016 11.4923 91.4414 10.892C92.7323 10.244 94.1757 9.92 95.7717 9.92C97.4147 9.92 98.8933 10.268 100.208 10.964C101.513 11.6289 102.602 12.6669 103.341 13.952C104.092 15.248 104.468 16.772 104.468 18.524V30.224H99.4683V27.38ZM94.3283 26.516C95.1498 26.516 95.9478 26.336 96.7223 25.976C97.5203 25.616 98.1775 25.076 98.6938 24.356C99.2102 23.636 99.4683 22.784 99.4683 21.8V21.656H94.786C93.6594 21.656 92.8144 21.884 92.2511 22.34C91.7113 22.796 91.4414 23.396 91.4414 24.14C91.4414 24.86 91.6879 25.436 92.1807 25.868C92.6971 26.3 93.4129 26.516 94.3283 26.516ZM114.862 14.42V30.224H109.863V14.42H107.645V10.28H109.863V9.272C109.863 6.824 110.544 5.024 111.905 3.872C113.266 2.72 115.32 2.18 118.066 2.252V6.5C116.869 6.476 116.036 6.68 115.566 7.112C115.097 7.544 114.862 8.324 114.862 9.452V10.28H121.268V5.348H126.232V10.28H130.597V14.42H126.232V24.068C126.232 24.74 126.384 25.232 126.689 25.544C127.018 25.832 127.558 25.976 128.309 25.976H130.597V30.224H127.499C123.345 30.224 121.268 28.16 121.268 24.032V14.42H114.862Z" fill="white"/>
</svg>
