<svg width="134" height="32" viewBox="0 0 134 32" fill="none" xmlns="http://www.w3.org/2000/svg">
<path d="M5.04 12.534C5.688 11.4593 6.576 10.5861 7.704 9.91436C8.856 9.24265 10.164 8.9068 11.628 8.9068C13.332 8.9068 14.868 9.37699 16.236 10.3174C17.628 11.2578 18.72 12.6012 19.512 14.3476C20.328 16.0672 20.736 18.0688 20.736 20.3526C20.736 22.6364 20.328 24.665 19.512 26.4383C18.72 28.1847 17.628 29.5416 16.236 30.5088C14.868 31.4761 13.332 31.9597 11.628 31.9597C10.14 31.9597 8.832 31.6373 7.704 30.9924C6.6 30.3207 5.712 29.461 5.04 28.4131V31.597H0V1.7733H5.04V12.534ZM15.588 20.3526C15.588 19.0092 15.336 17.8539 14.832 16.8867C14.352 15.8925 13.704 15.1402 12.888 14.6297C12.1004 14.1205 11.2055 13.8561 10.296 13.864C9.384 13.864 8.52 14.1327 7.704 14.67C6.912 15.1805 6.264 15.9328 5.76 16.927C5.28 17.9211 5.04 19.0898 5.04 20.4333C5.04 21.7767 5.28 22.9454 5.76 23.9395C6.264 24.9337 6.912 25.6994 7.704 26.2368C8.52 26.7473 9.384 27.0025 10.296 27.0025C11.232 27.0025 12.096 26.7338 12.888 26.1965C13.704 25.6591 14.352 24.8934 14.832 23.8992C15.336 22.9051 15.588 21.7229 15.588 20.3526ZM26.954 6.60957C26.066 6.60957 25.322 6.30059 24.722 5.68262C24.146 5.03778 23.858 4.24517 23.858 3.30479C23.858 2.3644 24.146 1.58522 24.722 0.967255C25.322 0.322418 26.066 0 26.954 0C27.842 0 28.574 0.322418 29.15 0.967255C29.75 1.58522 30.05 2.3644 30.05 3.30479C30.05 4.24517 29.75 5.03778 29.15 5.68262C28.574 6.30059 27.842 6.60957 26.954 6.60957ZM29.438 9.26952V31.597H24.398V9.26952H29.438ZM46.226 31.597L39.458 22.0856V31.597H34.418V1.7733H39.458V18.7406L46.154 9.26952H52.706L43.922 20.4736L52.778 31.597H46.226ZM53.145 20.4333C53.145 18.1226 53.565 16.1075 54.405 14.3879C55.245 12.6415 56.409 11.2981 57.897 10.3577C59.385 9.39043 61.089 8.9068 63.009 8.9068C65.481 8.9068 67.521 9.60537 69.129 11.0025C70.761 12.3728 71.853 14.3073 72.405 16.806H66.97C66.682 15.8388 66.19 15.0865 65.494 14.5491C64.822 13.9849 63.982 13.7028 62.974 13.7028C61.534 13.7028 60.394 14.2939 59.554 15.4761C58.714 16.6314 58.294 18.2838 58.294 20.4333C58.294 22.5558 58.714 24.2082 59.554 25.3904C60.394 26.5458 61.534 27.1234 62.974 27.1234C65.014 27.1234 66.346 26.1024 66.97 24.0605H72.406C71.854 26.4786 70.762 28.3997 69.13 29.8237C67.498 31.2477 65.458 31.9597 63.01 31.9597C61.09 31.9597 59.386 31.4895 57.898 30.5491C56.4218 29.5955 55.2125 28.1998 54.406 26.5189C53.566 24.7725 53.146 22.7439 53.146 20.4333H53.145ZM80.138 12.7355C80.756 11.5863 81.6227 10.6299 82.658 9.95466C83.714 9.28296 84.914 8.9471 86.258 8.9471V14.8715H84.926C83.342 14.8715 82.142 15.288 81.326 16.1209C80.534 16.9538 80.138 18.4047 80.138 20.4736V31.597H75.098V9.26952H80.138V12.7355ZM101.712 28.4131C101.16 29.4341 100.26 30.2939 99.012 30.9924C97.764 31.6641 96.42 32 94.98 32C93.732 32 92.604 31.7179 91.596 31.1537C90.588 30.5894 89.796 29.8102 89.22 28.8161C88.644 27.822 88.356 26.6801 88.356 25.3904C88.356 23.3216 89.04 21.6289 90.408 20.3123C91.8 18.9958 93.876 18.3375 96.636 18.3375H101.712C101.664 16.9135 101.292 15.7851 100.596 14.9521C99.924 14.0924 98.988 13.6625 97.788 13.6625C96.732 13.6625 95.856 13.9849 95.16 14.6297C94.464 15.2477 94.02 16.1209 93.828 17.2494H88.788C89.028 15.6373 89.544 14.1998 90.336 12.937C91.1449 11.6541 92.2362 10.6267 93.504 9.95466C94.824 9.22922 96.3 8.8665 97.932 8.8665C99.612 8.8665 101.124 9.25609 102.468 10.0353C103.803 10.7796 104.916 11.9417 105.672 13.3804C106.44 14.8312 106.824 16.5374 106.824 18.4987V31.597H101.712V28.4131ZM96.456 27.4458C97.296 27.4458 98.112 27.2443 98.904 26.8413C99.72 26.4383 100.392 25.8338 100.92 25.0277C101.448 24.2217 101.712 23.2678 101.712 22.1662V22.005H96.924C95.772 22.005 94.908 22.2603 94.332 22.7708C93.78 23.2813 93.504 23.953 93.504 24.7859C93.504 25.5919 93.756 26.2368 94.26 26.7204C94.788 27.204 95.52 27.4458 96.456 27.4458ZM117.453 13.9043V31.597H112.341V13.9043H110.073V9.26952H112.341V8.14106C112.341 5.4005 113.037 3.38539 114.429 2.09572C115.821 0.806045 117.921 0.201511 120.729 0.282116V5.03778C119.505 5.01092 118.653 5.23929 118.173 5.72292C117.693 6.20655 117.453 7.07976 117.453 8.34257V9.26952H124.003V3.74811H129.079V9.26952H133.543V13.9043H129.079V24.7053C129.079 25.4576 129.235 26.0084 129.547 26.3577C129.883 26.6801 130.435 26.8413 131.203 26.8413H133.543V31.597H130.375C126.127 31.597 124.003 29.2863 124.003 24.665V13.9043H117.453Z" fill="white"/>
</svg>
